<svg width="1370" height="180" viewBox="0 0 1370 180" fill="none" xmlns="http://www.w3.org/2000/svg">
<path d="M50.3751 74.2345C48.1824 74.2345 45.9709 74.316 43.7407 74.4851C41.5104 74.6542 39.3679 74.9487 37.3067 75.3747C35.2456 75.8007 33.3098 76.3833 31.5118 77.1288C29.7076 77.8743 28.1289 78.8203 26.7757 79.973C25.4225 81.1258 24.3449 82.5291 23.543 84.183C22.7411 85.8369 22.3277 87.779 22.2901 90.0092C22.3653 92.4963 22.8727 94.6138 23.825 96.3617C24.7709 98.1096 26.0239 99.563 27.5838 100.735C29.1438 101.906 30.9292 102.827 32.9339 103.491C34.9387 104.161 37.0186 104.663 39.1737 104.995C41.3287 105.327 43.4838 105.54 45.6389 105.634C47.794 105.728 49.7987 105.771 51.6594 105.771C52.5176 105.771 53.7393 105.765 55.3368 105.746C56.9343 105.728 58.7636 105.665 60.8247 105.552C62.8858 105.439 65.1161 105.295 67.5092 105.107C69.9024 104.919 72.3582 104.669 74.8641 104.356C77.37 104.042 79.8634 103.629 82.3317 103.128C84.8 102.626 87.118 102.038 89.273 101.374V118.758C83.0333 120.581 76.6621 121.853 70.1592 122.574C63.6564 123.3 57.0596 123.607 50.3751 123.494C49.7423 123.494 49.1409 123.501 48.5646 123.519C47.9882 123.538 47.3868 123.545 46.754 123.545C42.9638 123.545 39.1736 123.388 35.3835 123.068C31.5933 122.755 27.9722 122.16 24.5141 121.283C21.0622 120.412 17.8358 119.203 14.8475 117.662C11.853 116.121 9.25307 114.104 7.04787 111.616C4.83641 109.129 3.10734 106.116 1.86691 102.589C0.62022 99.0618 0 94.8832 0 90.0531V89.9967C0 85.129 0.632755 80.9253 1.89197 77.3732C3.15119 73.8273 4.89281 70.8077 7.10427 68.3206C9.31574 65.8334 11.9344 63.8162 14.9603 62.2751C17.9862 60.7339 21.2376 59.5248 24.7145 58.654C28.1852 57.7832 31.8376 57.1943 35.6654 56.8999C39.4932 56.6054 43.3021 56.4551 47.0923 56.4551C50.8825 56.4551 54.3657 56.5115 57.874 56.6242C61.3823 56.737 64.8655 56.9563 68.3237 57.2946C71.7756 57.6266 75.2337 58.1152 78.6919 58.7417C82.15 59.3745 85.6771 60.2077 89.2793 61.2476V78.6888C87.3874 78.0936 85.3764 77.5736 83.2589 77.1288C81.1414 76.684 78.9926 76.3019 76.8249 75.9886C74.6511 75.6754 72.4835 75.406 70.3346 75.1805C68.1796 74.955 66.1185 74.7921 64.1513 74.6793C59.5404 74.3849 54.9546 74.2345 50.3876 74.2345H50.3751Z" fill="white"/>
<path d="M162.557 57.2948C165.978 57.2948 169.198 57.9463 172.224 59.2431C175.25 60.5462 177.887 62.3191 180.136 64.5619C182.386 66.811 184.158 69.4359 185.462 72.4492C186.758 75.4563 187.41 78.689 187.41 82.1471C187.41 84.8598 186.99 87.4597 186.157 89.9468C185.324 92.4339 184.152 94.7143 182.649 96.7754C181.145 98.8365 179.353 100.628 177.273 102.151C175.194 103.673 172.926 104.844 170.476 105.659L190.373 122.599H159.669L141.276 106.993H122.663V122.655H100.43V57.2822H162.564L162.557 57.2948ZM122.657 75.1306V89.1198H158.322C159.287 89.1198 160.189 88.9319 161.029 88.5623C161.862 88.1926 162.595 87.6914 163.228 87.0587C163.861 86.426 164.362 85.693 164.731 84.8598C165.101 84.0266 165.289 83.1244 165.289 82.1597C165.289 81.1949 165.101 80.2865 164.731 79.4282C164.362 78.5762 163.861 77.8307 163.228 77.1979C162.595 76.5652 161.862 76.064 161.029 75.6944C160.196 75.3248 159.294 75.1368 158.322 75.1368H122.657V75.1306Z" fill="white"/>
<path d="M216.003 122.667H190.699L232.999 57.3569H261.253L303.603 122.667H278.3L271.891 113.026H222.405L215.996 122.667H216.003ZM247.151 75.5749L233.945 95.5282H260.307L247.157 75.5749H247.151Z" fill="white"/>
<path d="M397.902 104.5C397.902 106.987 397.425 109.336 396.479 111.548C395.533 113.759 394.243 115.683 392.608 117.318C390.973 118.953 389.062 120.243 386.869 121.189C384.677 122.135 382.34 122.611 379.846 122.611H344.795C334.577 122.649 322.969 122.668 309.963 122.668V57.2949H375.724C378.136 57.2949 380.398 57.7523 382.496 58.6606C384.595 59.569 386.424 60.8032 387.984 62.3694C389.544 63.9293 390.779 65.7586 391.693 67.8573C392.602 69.956 393.059 72.2114 393.059 74.6296C393.059 75.8575 392.902 77.0791 392.583 78.307C392.263 79.5349 391.837 80.7314 391.298 81.903C390.76 83.0745 390.127 84.1771 389.4 85.217C388.674 86.257 387.903 87.1654 387.089 87.9485C388.686 88.6564 390.146 89.5648 391.461 90.6799C392.783 91.795 393.911 93.0668 394.863 94.4952C395.809 95.9235 396.555 97.4835 397.093 99.1749C397.632 100.866 397.902 102.639 397.902 104.494V104.5ZM332.197 82.3164H367.806C369.146 82.3164 370.286 81.8403 371.232 80.8943C372.178 79.9483 372.655 78.8019 372.655 77.4675C372.655 76.1331 372.178 74.9866 371.232 74.0407C370.286 73.0947 369.14 72.6186 367.806 72.6186H332.197V82.3164ZM370.875 107.338C372.21 107.338 373.356 106.862 374.302 105.916C375.248 104.97 375.724 103.823 375.724 102.489C375.724 101.155 375.248 100.008 374.302 99.0622C373.356 98.1162 372.21 97.6401 370.875 97.6401H332.197V107.338H370.875Z" fill="white"/>
<g clip-path="url(#clip0_204_249)">
<path d="M510.887 140.876C519.125 149.237 527.73 152.692 539.394 153.07L539.337 111.982L539.193 87.1206C528.672 89.6961 518.666 92.3575 508.598 95.8791C502.281 98.0818 496.242 100.366 490.279 103.209C488.066 104.26 486.537 106.362 486.169 108.785L484.631 118.733C484.263 121.156 484.43 123.636 485.118 125.982L491.134 146.361C483.398 148.349 475.633 149.056 467.539 149.448C473.579 150.614 479.719 150.929 486.203 150.991C495.272 150.594 504.742 147.665 510.892 140.871L510.887 140.876Z" fill="white"/>
<path d="M596.796 118.733L595.258 108.785C594.89 106.362 593.356 104.26 591.149 103.209C585.19 100.366 579.141 98.0818 572.829 95.8791C562.756 92.3575 552.751 89.6961 542.234 87.1206L542.091 111.982L542.033 153.07C553.697 152.692 562.307 149.233 570.54 140.876C576.69 147.67 586.155 150.599 595.229 150.996C601.713 150.929 607.853 150.618 613.893 149.452C605.803 149.061 598.034 148.349 590.298 146.366L596.314 125.987C597.011 123.636 597.179 121.156 596.801 118.738L596.796 118.733Z" fill="white"/>
<path d="M473.335 30.4172L477.578 35.2623L492.486 77.5973L490.512 78.2137V101.684L501.779 96.7197C508.45 93.7811 515.144 91.6883 522.254 89.4329L522.297 80.5072L530.004 80.1393L530.09 86.9626L535.695 85.6581V80.082L540.712 80.0915L545.729 80.082V85.6581L551.334 86.9626L551.42 80.1393L559.127 80.5072L559.17 89.4329C566.285 91.6883 572.975 93.7811 579.645 96.7197L590.912 101.684V78.2137L588.939 77.5973L603.847 35.2623L608.09 30.4172C608.424 30.0253 609.241 29.4759 609.17 29.0554C608.969 27.8226 606.704 26.0403 605.749 27.1345L601.362 32.1612L555.988 33.8193L555.907 26.7523L549.92 26.7093L549.877 33.9722L542.853 33.9626L542.528 20.8321L548.639 19.8239C549.609 19.6662 550.474 19.1358 551.052 18.3522L553.852 14.5869L542.203 14.4722L542.289 0.414728L540.717 0.065918L539.145 0.414728L539.231 14.4722L527.582 14.5869L530.372 18.3522C530.96 19.1358 531.82 19.6662 532.795 19.8239L538.906 20.8321L538.581 33.9626L531.557 33.9722L531.514 26.7093L525.527 26.7523L525.446 33.8193L480.072 32.1612L475.685 27.1345C474.73 26.0403 472.465 27.8226 472.264 29.0554C472.193 29.4759 473.01 30.0253 473.344 30.4172H473.335ZM497.226 90.6657L497.154 83.8663L504.565 82.5332L504.618 89.3278L497.23 90.6705L497.226 90.6657ZM509.907 88.592L509.893 81.7257L516.993 80.9134L517.046 87.9182L509.912 88.592H509.907ZM571.522 88.592L564.388 87.9182L564.441 80.9134L571.541 81.7257L571.527 88.592H571.522ZM584.204 90.6657L576.816 89.323L576.869 82.5284L584.28 83.8615L584.208 90.6609L584.204 90.6657ZM600.22 33.5899L577.49 62.1398L569.334 72.1071L561.196 49.5444L556.079 35.3531L600.22 33.5851V33.5899ZM549.896 37.7804L549.882 50.5287H543.154L542.953 37.7374L549.901 37.7804H549.896ZM538.481 37.7374L538.28 50.5287H531.552L531.538 37.7804L538.486 37.7374H538.481ZM525.35 35.3626L520.233 49.5539L512.1 72.1167L503.944 62.1493L481.214 33.5995L525.355 35.3674L525.35 35.3626ZM485.982 46.1948L504.369 69.9521C505.11 70.9078 505.444 71.6054 506.237 73.1297L513.648 72.3412L525.36 40.2364L525.503 71.161L531.533 71.1037L531.543 54.767L538.28 54.7383L537.903 71.1371L540.717 71.1276L543.531 71.1371L543.154 54.7383L549.891 54.767L549.901 71.1037L555.931 71.161L556.074 40.2364L567.786 72.3412L575.197 73.1297C575.995 71.6054 576.329 70.9126 577.065 69.9521L595.451 46.1948C597.262 43.8535 598.777 41.5265 600.75 39.4719L587.357 77.4492C578.642 75.5474 570.036 74.2573 561.139 73.5836C554.301 73.0484 547.502 72.7856 540.717 72.7952C533.932 72.7856 527.128 73.0484 520.295 73.5836C511.398 74.2573 502.792 75.5474 494.077 77.4492L480.683 39.4719C482.657 41.5217 484.172 43.8487 485.982 46.1948Z" fill="white"/>
<path d="M568.609 156.428C584.138 159.133 599.959 159.888 615.584 157.341C606.471 156.529 597.995 155.84 589.447 153.332C582.709 151.354 576.287 149.127 570.181 145.386C562.01 152.673 551.637 156.012 540.714 155.668C529.795 156.017 519.417 152.673 511.246 145.386C505.14 149.127 498.718 151.354 491.981 153.332C483.432 155.84 474.956 156.529 465.844 157.341C481.469 159.888 497.289 159.133 512.818 156.428C513.645 156.285 514.39 156.892 514.429 157.594C502.894 162.004 491.044 164.236 479.013 165.019C484.02 165.774 488.669 165.822 493.715 165.899C503.367 165.712 512.785 164.542 522.217 162.721L529.098 166.209C517.902 170.017 506.855 172.029 495.086 173.09C497.175 173.639 499.162 173.735 501.327 173.916C513.21 174.452 524.912 173.472 536.557 171.016L536.7 170.987L540.709 170.08L543.284 170.667C555.45 173.381 567.672 174.476 580.096 173.916C582.265 173.735 584.248 173.639 586.336 173.09C574.567 172.029 563.52 170.017 552.325 166.209L559.205 162.721C568.638 164.542 578.055 165.708 587.707 165.899C592.753 165.827 597.402 165.774 602.41 165.019C590.374 164.236 578.528 162.004 566.994 157.594C567.032 156.892 567.777 156.28 568.604 156.428H568.609Z" fill="white"/>
<path d="M526.488 179.498C531.171 179.732 535.763 179.297 540.574 178.709C545.396 179.297 550.002 179.789 554.938 179.574L540.336 175.245L526.488 179.503V179.498Z" fill="white"/>
</g>
<path d="M704.102 122.408H681.867V57.1577H703.934L752.8 96.1041V57.1577H775.036V122.408H752.969L704.102 83.4619V122.408Z" fill="white"/>
<path d="M834.772 56.4849C838.742 56.4156 842.751 56.4651 846.781 56.6532C850.81 56.8413 854.691 57.3066 858.423 58.0491C862.155 58.7916 865.66 59.8905 868.927 61.3359C872.194 62.7813 875.035 64.7613 877.451 67.266C879.866 69.7707 881.767 72.8891 883.163 76.6016C884.559 80.3141 885.232 84.7889 885.192 90.0358C885.232 95.1244 884.549 99.5101 883.163 103.183C881.767 106.866 879.866 109.945 877.451 112.43C875.035 114.924 872.194 116.914 868.927 118.419C865.66 119.924 862.155 121.062 858.423 121.844C854.691 122.626 850.81 123.121 846.781 123.319C842.751 123.527 838.742 123.587 834.772 123.517C830.832 123.587 826.842 123.517 822.793 123.319C818.744 123.112 814.853 122.626 811.121 121.844C807.389 121.062 803.894 119.924 800.647 118.419C797.4 116.914 794.549 114.914 792.123 112.43C789.688 109.945 787.787 106.856 786.411 103.183C785.035 99.5101 784.352 95.1244 784.352 90.0358C784.352 84.9473 785.035 80.324 786.411 76.6016C787.787 72.8891 789.688 69.7707 792.123 67.266C794.558 64.7613 797.4 62.7813 800.647 61.3359C803.894 59.8905 807.389 58.7916 811.121 58.0491C814.853 57.3066 818.744 56.8413 822.793 56.6532C826.842 56.4651 830.832 56.4156 834.772 56.4849ZM834.772 105.806C838.079 105.806 841.395 105.608 844.721 105.222C848.048 104.836 851.048 104.074 853.721 102.965C856.393 101.846 858.581 100.262 860.264 98.2033C861.957 96.1441 862.838 93.4216 862.908 90.0358C862.908 87.848 862.512 85.9274 861.71 84.2939C860.908 82.6604 859.839 81.2546 858.502 80.0864C857.166 78.9182 855.582 77.9579 853.77 77.2154C851.948 76.4729 849.998 75.8789 847.919 75.4334C845.84 74.9879 843.672 74.681 841.425 74.5127C839.178 74.3444 836.96 74.2454 834.762 74.2058C832.574 74.2058 830.357 74.2949 828.099 74.483C825.852 74.6711 823.694 74.9879 821.635 75.4334C819.576 75.8789 817.625 76.4729 815.814 77.2154C813.992 77.9579 812.408 78.9182 811.052 80.0864C809.695 81.2546 808.626 82.6604 807.844 84.2939C807.062 85.9274 806.656 87.8381 806.617 90.0358C806.686 92.2633 807.131 94.2037 807.923 95.857C808.725 97.5103 809.785 98.9161 811.131 100.094C812.467 101.262 814.032 102.223 815.843 102.965C817.645 103.708 819.585 104.282 821.664 104.688C823.743 105.094 825.902 105.381 828.129 105.549C830.357 105.717 832.564 105.797 834.762 105.797L834.772 105.806ZM834.772 105.856C834.851 105.856 834.871 105.856 834.861 105.826C834.841 105.806 834.812 105.797 834.772 105.797C834.732 105.797 834.713 105.797 834.713 105.826C834.713 105.846 834.732 105.856 834.772 105.856Z" fill="white"/>
<path d="M956.701 57.0998C960.116 57.0998 963.344 57.7532 966.363 59.05C969.393 60.3469 972.026 62.119 974.273 64.3663C976.521 66.6136 978.293 69.247 979.59 72.2467C980.886 75.2563 981.54 78.4836 981.54 81.9387C981.54 84.6513 981.124 87.255 980.283 89.7399C979.451 92.2248 978.273 94.5017 976.768 96.5609C975.263 98.6201 973.471 100.412 971.392 101.937C969.313 103.461 967.046 104.629 964.591 105.451L984.48 122.39H953.78L935.386 106.788H916.774V122.449H894.539V57.0898H956.671L956.701 57.0998ZM916.794 74.9296V88.9182H952.454C953.414 88.9182 954.315 88.7301 955.156 88.3638C955.988 87.9975 956.721 87.4926 957.354 86.859C957.988 86.2254 958.483 85.4928 958.859 84.6612C959.225 83.8296 959.413 82.9287 959.413 81.9585C959.413 80.9883 959.225 80.0874 958.859 79.2261C958.483 78.3747 957.988 77.6322 957.354 76.9986C956.721 76.365 955.988 75.8701 955.156 75.4939C954.315 75.1276 953.414 74.9395 952.454 74.9395H916.794V74.9296Z" fill="white"/>
<path d="M1130.06 56.9902L1090.83 122.35H1062.57L1054.22 108.47L1045.91 122.35H1017.66L978.422 56.9902H1003.72L1031.8 104.134L1041.66 87.5316L1023.33 56.9902H1048.63L1054.21 66.4645L1059.83 56.9902H1085.13L1066.8 87.5316L1076.66 104.134L1104.75 56.9902H1130.05H1130.06Z" fill="white"/>
<path d="M1137.8 122.3H1112.5L1154.8 56.9404H1183.05L1225.4 122.3H1200.11L1193.7 112.608H1144.22L1137.82 122.3H1137.8ZM1168.94 75.1563L1155.74 95.1047H1182.09L1168.94 75.1563Z" fill="white"/>
<path d="M1267.13 101.232V122.408H1244.9V101.232L1201.44 57.1577H1232.14L1256.05 81.2839L1279.89 57.1577H1310.65L1267.13 101.232Z" fill="white"/>
<defs>
<clipPath id="clip0_204_249">
<rect width="147.966" height="180" fill="white" transform="translate(465.902)"/>
</clipPath>
</defs>
</svg>
