<svg width="16" height="16" viewBox="0 0 16 16" fill="none" xmlns="http://www.w3.org/2000/svg">
<path d="M8.01883 3.875C10.2688 3.875 12.126 5.73214 12.126 7.98214C12.126 10.2679 10.2688 12.0893 8.01883 12.0893C5.73312 12.0893 3.91169 10.2679 3.91169 7.98214C3.91169 5.73214 5.73312 3.875 8.01883 3.875ZM8.01883 10.6607C9.48312 10.6607 10.6617 9.48214 10.6617 7.98214C10.6617 6.51786 9.48312 5.33929 8.01883 5.33929C6.51883 5.33929 5.34026 6.51786 5.34026 7.98214C5.34026 9.48214 6.55455 10.6607 8.01883 10.6607ZM13.2331 3.73214C13.2331 4.26786 12.8045 4.69643 12.2688 4.69643C11.7331 4.69643 11.3045 4.26786 11.3045 3.73214C11.3045 3.19643 11.7331 2.76786 12.2688 2.76786C12.8045 2.76786 13.2331 3.19643 13.2331 3.73214ZM15.9474 4.69643C16.0188 6.01786 16.0188 9.98214 15.9474 11.3036C15.876 12.5893 15.5903 13.6964 14.6617 14.6607C13.7331 15.5893 12.5903 15.875 11.3045 15.9464C9.98312 16.0179 6.01883 16.0179 4.69741 15.9464C3.41169 15.875 2.30455 15.5893 1.34026 14.6607C0.411691 13.6964 0.125977 12.5893 0.054548 11.3036C-0.0168806 9.98214 -0.0168806 6.01786 0.054548 4.69643C0.125977 3.41071 0.411691 2.26786 1.34026 1.33929C2.30455 0.410714 3.41169 0.125 4.69741 0.0535714C6.01883 -0.0178571 9.98312 -0.0178571 11.3045 0.0535714C12.5903 0.125 13.7331 0.410714 14.6617 1.33929C15.5903 2.26786 15.876 3.41071 15.9474 4.69643ZM14.2331 12.6964C14.6617 11.6607 14.5545 9.16071 14.5545 7.98214C14.5545 6.83929 14.6617 4.33929 14.2331 3.26786C13.9474 2.58929 13.4117 2.01786 12.7331 1.76786C11.6617 1.33929 9.16169 1.44643 8.01883 1.44643C6.84026 1.44643 4.34026 1.33929 3.30455 1.76786C2.59026 2.05357 2.05455 2.58929 1.76883 3.26786C1.34026 4.33929 1.44741 6.83929 1.44741 7.98214C1.44741 9.16071 1.34026 11.6607 1.76883 12.6964C2.05455 13.4107 2.59026 13.9464 3.30455 14.2321C4.34026 14.6607 6.84026 14.5536 8.01883 14.5536C9.16169 14.5536 11.6617 14.6607 12.7331 14.2321C13.4117 13.9464 13.9831 13.4107 14.2331 12.6964Z" fill="white"/>
</svg>
