<svg width="177" height="64" viewBox="0 0 177 64" fill="none" xmlns="http://www.w3.org/2000/svg">
<g clip-path="url(#clip0_204_429)">
<path d="M82.0679 19.8994C81.4718 19.8994 80.8706 19.9215 80.2643 19.9675C79.6579 20.0135 79.0755 20.0935 78.5152 20.2093C77.9548 20.3251 77.4286 20.4835 76.9398 20.6862C76.4493 20.8889 76.0201 21.146 75.6522 21.4594C75.2843 21.7728 74.9914 22.1543 74.7734 22.6039C74.5554 23.0535 74.443 23.5815 74.4328 24.1878C74.4532 24.864 74.5912 25.4396 74.85 25.9148C75.1072 26.39 75.4478 26.7851 75.8719 27.1036C76.296 27.4221 76.7814 27.6724 77.3264 27.8529C77.8714 28.0352 78.4368 28.1714 79.0227 28.2617C79.6086 28.352 80.1944 28.4099 80.7803 28.4354C81.3662 28.461 81.9112 28.4729 82.417 28.4729C82.6503 28.4729 82.9824 28.4712 83.4167 28.4661C83.851 28.461 84.3484 28.4439 84.9087 28.4133C85.469 28.3826 86.0753 28.3434 86.7259 28.2923C87.3765 28.2413 88.0441 28.1731 88.7254 28.088C89.4066 28.0028 90.0845 27.8904 90.7555 27.7542C91.4265 27.6179 92.0567 27.4578 92.6426 27.2773V32.0035C90.9463 32.4991 89.2142 32.8448 87.4463 33.0407C85.6785 33.2382 83.8851 33.3217 82.0679 33.291C81.8959 33.291 81.7324 33.2927 81.5757 33.2978C81.419 33.3029 81.2555 33.3046 81.0835 33.3046C80.0531 33.3046 79.0227 33.2621 77.9923 33.1752C76.9619 33.09 75.9775 32.9283 75.0374 32.6898C74.099 32.4531 73.2218 32.1244 72.4095 31.7054C71.5954 31.2864 70.8886 30.738 70.2891 30.0619C69.6879 29.3858 69.2178 28.5666 68.8806 27.6077C68.5417 26.6488 68.373 25.5129 68.373 24.1997V24.1844C68.373 22.8611 68.5451 21.7183 68.8874 20.7526C69.2297 19.7887 69.7032 18.9677 70.3044 18.2916C70.9056 17.6155 71.6175 17.0671 72.4401 16.6481C73.2627 16.2291 74.1466 15.9004 75.0919 15.6637C76.0354 15.427 77.0283 15.2669 78.0689 15.1868C79.1095 15.1068 80.145 15.0659 81.1754 15.0659C82.2058 15.0659 83.1528 15.0812 84.1065 15.1119C85.0603 15.1425 86.0072 15.2021 86.9473 15.2941C87.8857 15.3844 88.8259 15.5172 89.766 15.6875C90.7061 15.8595 91.665 16.0861 92.6443 16.3688V21.1103C92.1299 20.9485 91.5832 20.8071 91.0076 20.6862C90.4319 20.5653 89.8477 20.4614 89.2585 20.3762C88.6675 20.2911 88.0782 20.2178 87.494 20.1565C86.9082 20.0952 86.3478 20.0509 85.813 20.0203C84.5595 19.9402 83.3129 19.8994 82.0713 19.8994H82.0679Z" fill="white"/>
<path d="M112.566 15.2941C113.496 15.2941 114.371 15.4712 115.194 15.8238C116.016 16.178 116.733 16.66 117.345 17.2697C117.956 17.8811 118.438 18.5947 118.792 19.4139C119.145 20.2314 119.322 21.1103 119.322 22.0504C119.322 22.7878 119.208 23.4946 118.981 24.1708C118.755 24.8469 118.436 25.4668 118.028 26.0272C117.619 26.5875 117.132 27.0746 116.566 27.4885C116.001 27.9023 115.384 28.2208 114.718 28.4422L120.128 33.0475H111.781L106.78 28.805H101.72V33.0628H95.6758V15.2907H112.567L112.566 15.2941ZM101.718 20.1429V23.946H111.414C111.677 23.946 111.922 23.8949 112.15 23.7944C112.377 23.6939 112.576 23.5576 112.748 23.3856C112.92 23.2136 113.056 23.0143 113.157 22.7878C113.257 22.5613 113.308 22.3161 113.308 22.0538C113.308 21.7915 113.257 21.5446 113.157 21.3112C113.056 21.0796 112.92 20.8769 112.748 20.7049C112.576 20.5329 112.377 20.3966 112.15 20.2962C111.924 20.1957 111.678 20.1446 111.414 20.1446H101.718V20.1429Z" fill="white"/>
<path d="M127.096 33.0662H120.217L131.716 15.3111H139.397L150.91 33.0662H144.032L142.289 30.4451H128.836L127.094 33.0662H127.096ZM135.564 20.2638L131.973 25.6883H139.14L135.565 20.2638H135.564Z" fill="white"/>
<path d="M176.545 28.1271C176.545 28.8033 176.416 29.4419 176.159 30.0432C175.902 30.6444 175.551 31.1672 175.106 31.6117C174.662 32.0562 174.142 32.4071 173.546 32.6643C172.95 32.9214 172.315 33.0509 171.637 33.0509H162.108C159.33 33.0611 156.174 33.0662 152.639 33.0662V15.2941H170.516C171.172 15.2941 171.787 15.4184 172.357 15.6654C172.928 15.9123 173.425 16.2478 173.849 16.6736C174.273 17.0977 174.609 17.595 174.858 18.1656C175.105 18.7361 175.229 19.3492 175.229 20.0066C175.229 20.3405 175.186 20.6726 175.099 21.0064C175.013 21.3402 174.897 21.6655 174.75 21.984C174.604 22.3025 174.432 22.6022 174.234 22.8849C174.037 23.1676 173.827 23.4146 173.606 23.6275C174.04 23.8199 174.437 24.0669 174.795 24.37C175.154 24.6732 175.461 25.0189 175.719 25.4072C175.977 25.7956 176.179 26.2196 176.326 26.6795C176.472 27.1393 176.545 27.6213 176.545 28.1254V28.1271ZM158.683 22.0964H168.364C168.728 22.0964 169.038 21.9669 169.295 21.7098C169.552 21.4526 169.682 21.1409 169.682 20.7782C169.682 20.4154 169.552 20.1037 169.295 19.8465C169.038 19.5894 168.726 19.4599 168.364 19.4599H158.683V22.0964ZM169.198 28.8987C169.561 28.8987 169.873 28.7692 170.13 28.512C170.387 28.2549 170.516 27.9432 170.516 27.5804C170.516 27.2177 170.387 26.906 170.13 26.6488C169.873 26.3917 169.561 26.2622 169.198 26.2622H158.683V28.8987H169.198Z" fill="white"/>
<path d="M72.1983 50.6509H68.373V39.4256H72.1693L80.5759 46.1257V39.4256H84.4012V50.6509H80.6049L72.1983 43.9508V50.6509Z" fill="white"/>
<path d="M94.6779 39.3098C95.3609 39.2979 96.0506 39.3064 96.7438 39.3387C97.437 39.3711 98.1046 39.4511 98.7467 39.5789C99.3888 39.7066 99.9917 39.8957 100.554 40.1443C101.116 40.393 101.605 40.7336 102.02 41.1645C102.436 41.5954 102.763 42.1319 103.003 42.7705C103.243 43.4092 103.359 44.179 103.352 45.0817C103.359 45.9571 103.241 46.7116 103.003 47.3434C102.763 47.977 102.436 48.5067 102.02 48.9341C101.605 49.3633 101.116 49.7057 100.554 49.9645C99.9917 50.2234 99.3888 50.4193 98.7467 50.5538C98.1046 50.6884 97.437 50.7735 96.7438 50.8076C96.0506 50.8433 95.3609 50.8536 94.6779 50.8416C94.0001 50.8536 93.3137 50.8416 92.6171 50.8076C91.9206 50.7718 91.2512 50.6884 90.6092 50.5538C89.9671 50.4193 89.3659 50.2234 88.8072 49.9645C88.2486 49.7057 87.7581 49.3616 87.3409 48.9341C86.9219 48.5067 86.5949 47.9753 86.3582 47.3434C86.1214 46.7116 86.0039 45.9571 86.0039 45.0817C86.0039 44.2063 86.1214 43.4109 86.3582 42.7705C86.5949 42.1319 86.9219 41.5954 87.3409 41.1645C87.7598 40.7336 88.2486 40.393 88.8072 40.1443C89.3659 39.8957 89.9671 39.7066 90.6092 39.5789C91.2512 39.4511 91.9206 39.3711 92.6171 39.3387C93.3137 39.3064 94.0001 39.2979 94.6779 39.3098ZM94.6779 47.7948C95.2468 47.7948 95.8173 47.7607 96.3896 47.6943C96.9618 47.6278 97.4779 47.4967 97.9377 47.306C98.3975 47.1135 98.7739 46.841 99.0635 46.4868C99.3547 46.1325 99.5063 45.6641 99.5182 45.0817C99.5182 44.7053 99.4501 44.3749 99.3121 44.0939C99.1742 43.8129 98.9902 43.571 98.7603 43.37C98.5304 43.1691 98.2579 43.0039 97.9462 42.8761C97.6328 42.7484 97.2973 42.6462 96.9397 42.5696C96.582 42.4929 96.209 42.4401 95.8224 42.4112C95.4358 42.3822 95.0543 42.3652 94.6762 42.3584C94.2998 42.3584 93.9183 42.3737 93.53 42.4061C93.1434 42.4384 92.7721 42.4929 92.4179 42.5696C92.0636 42.6462 91.7281 42.7484 91.4164 42.8761C91.1031 43.0039 90.8306 43.1691 90.5972 43.37C90.3639 43.571 90.18 43.8129 90.0454 44.0939C89.9109 44.3749 89.841 44.7036 89.8342 45.0817C89.8462 45.4649 89.9228 45.7987 90.059 46.0831C90.197 46.3675 90.3792 46.6094 90.6109 46.8121C90.8408 47.013 91.1099 47.1782 91.4215 47.306C91.7315 47.4337 92.0653 47.5325 92.423 47.6023C92.7806 47.6721 93.1519 47.7215 93.5351 47.7505C93.9183 47.7794 94.2981 47.7931 94.6762 47.7931L94.6779 47.7948ZM94.6779 47.8033C94.6915 47.8033 94.695 47.8033 94.6932 47.7982C94.6898 47.7948 94.6847 47.7931 94.6779 47.7931C94.6711 47.7931 94.6677 47.7931 94.6677 47.7982C94.6677 47.8016 94.6711 47.8033 94.6779 47.8033Z" fill="white"/>
<path d="M115.653 39.4154C116.24 39.4154 116.796 39.5278 117.315 39.7509C117.836 39.974 118.289 40.2789 118.676 40.6655C119.063 41.0521 119.367 41.5051 119.591 42.0212C119.814 42.5389 119.926 43.0941 119.926 43.6885C119.926 44.1552 119.855 44.6031 119.71 45.0306C119.567 45.4581 119.364 45.8498 119.105 46.204C118.846 46.5583 118.538 46.8665 118.18 47.1288C117.823 47.3911 117.433 47.5921 117.01 47.7334L120.432 50.6475H115.15L111.986 47.9634H108.784V50.6577H104.959V39.4137H115.648L115.653 39.4154ZM108.788 42.4827V44.8892H114.922C115.087 44.8892 115.242 44.8569 115.387 44.7938C115.53 44.7308 115.656 44.644 115.765 44.535C115.874 44.426 115.959 44.2999 116.024 44.1569C116.087 44.0138 116.12 43.8588 116.12 43.6919C116.12 43.525 116.087 43.37 116.024 43.2219C115.959 43.0754 115.874 42.9476 115.765 42.8386C115.656 42.7296 115.53 42.6445 115.387 42.5798C115.242 42.5168 115.087 42.4844 114.922 42.4844H108.788V42.4827Z" fill="white"/>
<path d="M145.477 39.3966L138.728 50.6407H133.867L132.43 48.2529L131.001 50.6407H126.14L119.391 39.3966H123.742L128.574 47.5069L130.27 44.6508L127.116 39.3966H131.469L132.428 41.0265L133.395 39.3966H137.749L134.594 44.6508L136.291 47.5069L141.122 39.3966H145.476H145.477Z" fill="white"/>
<path d="M146.809 50.6321H142.457L149.733 39.3881H154.593L161.879 50.6321H157.528L156.426 48.9648H147.914L146.812 50.6321H146.809ZM152.167 42.5219L149.895 45.9537H154.428L152.167 42.5219Z" fill="white"/>
<path d="M169.058 47.0079V50.6509H165.233V47.0079L157.756 39.4256H163.037L167.15 43.5761L171.253 39.4256H176.545L169.058 47.0079Z" fill="white"/>
<path d="M16.0543 50.1894C18.9904 53.1698 22.0578 54.4012 26.2151 54.5357L26.1947 39.8906L26.1436 31.0292C22.3933 31.9472 18.8269 32.8958 15.2385 34.151C12.9869 34.9362 10.8342 35.7503 8.70868 36.7636C7.92014 37.1383 7.37514 37.8877 7.244 38.7512L6.69559 42.2971C6.56445 43.1606 6.62406 44.0445 6.86931 44.8807L9.01354 52.1445C6.25618 52.853 3.48861 53.1051 0.603516 53.2448C2.75626 53.6603 4.94478 53.7727 7.25592 53.7949C10.4884 53.6535 13.864 52.6095 16.056 50.1876L16.0543 50.1894Z" fill="white"/>
<path d="M46.6758 42.2971L46.1273 38.7512C45.9962 37.8877 45.4495 37.1383 44.6627 36.7636C42.5389 35.7503 40.3827 34.9362 38.1329 34.151C34.5427 32.8958 30.9764 31.9472 27.2278 31.0292L27.1767 39.8906L27.1562 54.5357C31.3136 54.4012 34.3826 53.1681 37.3171 50.1894C39.509 52.6112 42.8829 53.6552 46.1171 53.7966C48.4283 53.7727 50.6168 53.662 52.7695 53.2465C49.8861 53.1068 47.1169 52.853 44.3595 52.1462L46.5037 44.8824C46.7524 44.0445 46.812 43.1606 46.6775 42.2988L46.6758 42.2971Z" fill="white"/>
<path d="M2.67019 10.8182L4.18256 12.5452L9.49631 27.6349L8.79292 27.8546V36.2203L12.8089 34.4508C15.1864 33.4034 17.5725 32.6574 20.1068 31.8535L20.1221 28.6721L22.8692 28.541L22.8999 30.973L24.8977 30.5081V28.5205L26.6859 28.5239L28.4742 28.5205V30.5081L30.472 30.973L30.5026 28.541L33.2498 28.6721L33.2651 31.8535C35.8011 32.6574 38.1854 33.4034 40.563 34.4508L44.579 36.2203V27.8546L43.8756 27.6349L49.1893 12.5452L50.7017 10.8182C50.8209 10.6786 51.1122 10.4827 51.0866 10.3329C51.0151 9.89345 50.2078 9.25818 49.8672 9.6482L48.3037 11.4399L32.1308 12.0309L32.1019 9.51195L29.9679 9.49662L29.9525 12.0854L27.4489 12.082L27.3331 7.40178L29.5114 7.04242C29.8572 6.98622 30.1654 6.79717 30.3715 6.51786L31.3695 5.17579L27.2173 5.13492L27.248 0.124328L26.6876 0L26.1273 0.124328L26.158 5.13492L22.0058 5.17579L23.0004 6.51786C23.2099 6.79717 23.5164 6.98622 23.8639 7.04242L26.0422 7.40178L25.9263 12.082L23.4228 12.0854L23.4074 9.49662L21.2734 9.51195L21.2445 12.0309L5.07159 11.4399L3.50813 9.6482C3.1675 9.25818 2.36022 9.89345 2.28869 10.3329C2.26314 10.4827 2.55438 10.6786 2.67359 10.8182H2.67019ZM11.1858 32.2929L11.1603 29.8694L13.8018 29.3942L13.8205 31.8161L11.1875 32.2946L11.1858 32.2929ZM15.7059 31.5538L15.7008 29.1064L18.2316 28.8169L18.2504 31.3136L15.7076 31.5538H15.7059ZM37.6677 31.5538L35.1249 31.3136L35.1437 28.8169L37.6745 29.1064L37.6694 31.5538H37.6677ZM42.1878 32.2929L39.5547 31.8144L39.5735 29.3925L42.215 29.8677L42.1895 32.2912L42.1878 32.2929ZM47.8967 11.9491L39.7949 22.1253L36.8877 25.678L33.9872 17.6359L32.1632 12.5776L47.8967 11.9474V11.9491ZM29.9593 13.4428L29.9542 17.9867H27.5562L27.4847 13.4274L29.9611 13.4428H29.9593ZM25.8906 13.4274L25.8191 17.9867H23.4211L23.4159 13.4428L25.8923 13.4274H25.8906ZM21.2104 12.581L19.3864 17.6393L16.4876 25.6814L13.5804 22.1287L5.47864 11.9525L21.2121 12.5827L21.2104 12.581ZM7.17836 16.442L13.732 24.9099C13.996 25.2505 14.1152 25.4992 14.3979 26.0425L17.0394 25.7615L21.2138 14.3182L21.2649 25.3408L23.4142 25.3203L23.4176 19.4974L25.8191 19.4871L25.6845 25.3323L26.6876 25.3289L27.6908 25.3323L27.5562 19.4871L29.9576 19.4974L29.9611 25.3203L32.1104 25.3408L32.1615 14.3182L36.3358 25.7615L38.9774 26.0425C39.2618 25.4992 39.381 25.2522 39.6433 24.9099L46.1969 16.442C46.8424 15.6074 47.3823 14.778 48.0857 14.0457L43.3118 27.5821C40.2053 26.9043 37.138 26.4444 33.9668 26.2043C31.5296 26.0135 29.1061 25.9198 26.6876 25.9233C24.2692 25.9198 21.844 26.0135 19.4085 26.2043C16.2373 26.4444 13.1699 26.9043 10.0635 27.5821L5.28959 14.0457C5.99298 14.7763 6.53287 15.6057 7.17836 16.442Z" fill="white"/>
<path d="M36.6291 55.733C42.1642 56.697 47.8033 56.9661 53.3725 56.0583C50.1246 55.7688 47.1033 55.5235 44.0564 54.6294C41.655 53.9243 39.366 53.1306 37.1894 51.7971C34.2771 54.3944 30.5796 55.5848 26.6863 55.4622C22.7946 55.5865 19.0954 54.3944 16.1831 51.7971C14.0065 53.1306 11.7175 53.9243 9.31609 54.6294C6.2692 55.5235 3.24786 55.7688 0 56.0583C5.56922 56.9661 11.2083 56.697 16.7434 55.733C17.0381 55.6819 17.3037 55.8982 17.3174 56.1486C13.206 57.7206 8.98228 58.5159 4.69381 58.7952C6.47868 59.0643 8.13582 59.0813 9.93432 59.1086C13.3746 59.0422 16.7315 58.6249 20.0935 57.976L22.546 59.2193C18.5555 60.5767 14.6179 61.2937 10.4231 61.6718C11.1674 61.8677 11.8759 61.9017 12.6474 61.9664C16.8831 62.1572 21.054 61.8081 25.2045 60.9326L25.2556 60.9224L26.6845 60.5988L27.6025 60.8083C31.9387 61.7757 36.2953 62.1657 40.7234 61.9664C41.4966 61.9017 42.2034 61.8677 42.9477 61.6718C38.7529 61.2937 34.8153 60.5767 30.8248 59.2193L33.2773 57.976C36.6393 58.6249 39.9962 59.0405 43.4365 59.1086C45.235 59.0831 46.8921 59.0643 48.677 58.7952C44.3868 58.5159 40.1648 57.7206 36.0534 56.1486C36.0671 55.8982 36.3327 55.6802 36.6274 55.733H36.6291Z" fill="white"/>
<path d="M21.6152 63.9557C23.2843 64.0391 24.921 63.8842 26.636 63.6747C28.3545 63.8842 29.9963 64.0596 31.7556 63.9829L26.5509 62.4399L21.6152 63.9574V63.9557Z" fill="white"/>
</g>
<defs>
<clipPath id="clip0_204_429">
<rect width="177" height="64" fill="white"/>
</clipPath>
</defs>
</svg>
