<svg width="16" height="16" viewBox="0 0 16 16" fill="none" xmlns="http://www.w3.org/2000/svg">
<g clip-path="url(#clip0_74_794)">
<path d="M15.755 1.71983C15.5598 1.48007 15.2667 1.34801 14.9296 1.34801C14.7478 1.34801 14.5552 1.38607 14.3571 1.46111L0.81115 6.59348C0.0909044 6.86643 -0.00603664 7.27729 0.000276097 7.49789C0.00655758 7.7174 0.125656 8.1191 0.85062 8.35098L3.72338 9.40374L5.23741 12.8694C5.3896 13.3487 5.70761 13.685 6.1135 13.7941C6.20655 13.8191 6.30248 13.8317 6.39883 13.8316C6.72846 13.8316 7.06598 13.6864 7.35745 13.4127L8.61181 12.2342L11.6724 14.3408C11.948 14.5445 12.2479 14.652 12.5404 14.652C13.134 14.652 13.6074 14.2175 13.7465 13.545L15.9619 2.83012C16.053 2.38976 15.9795 1.99547 15.755 1.71983ZM4.67545 9.24108L8.58469 7.14472L5.86021 9.64384C5.8125 9.68774 5.77443 9.74107 5.74841 9.80045C5.72238 9.85983 5.70897 9.92396 5.70902 9.9888C5.70883 9.99361 5.70824 9.9983 5.70821 10.0031L5.6988 11.5835L4.67545 9.24108ZM6.71556 12.7293C6.68826 12.7551 6.65937 12.7791 6.62905 12.8011L6.64052 10.8773L7.82153 11.6902L6.71556 12.7293ZM15.0438 2.64027L12.8284 13.3551C12.8061 13.4631 12.7332 13.7145 12.5403 13.7145C12.4502 13.7145 12.3385 13.6681 12.2257 13.5838C12.2208 13.5802 12.2159 13.5767 12.2109 13.5733L8.83679 11.2509L8.83542 11.2499L6.92772 9.93686L11.9671 5.31431C12.0513 5.23711 12.1044 5.13185 12.1164 5.01828C12.1284 4.90472 12.0986 4.79066 12.0325 4.69754C11.9664 4.60441 11.8686 4.53862 11.7574 4.51251C11.6462 4.4864 11.5293 4.50178 11.4287 4.55575L4.03643 8.51996L1.1636 7.4672C1.1615 7.46642 1.1594 7.46566 1.15729 7.46492L14.6893 2.33783C14.8034 2.2946 14.883 2.28554 14.9296 2.28554C14.9528 2.28554 15.0087 2.2881 15.0281 2.31186C15.0528 2.34226 15.084 2.44567 15.0438 2.64027Z" fill="white"/>
</g>
<defs>
<clipPath id="clip0_74_794">
<rect width="16" height="16" fill="white"/>
</clipPath>
</defs>
</svg>
