<svg width="16" height="16" viewBox="0 0 16 16" fill="none" xmlns="http://www.w3.org/2000/svg">
<path d="M12.62 2.36385H3.37917C1.69677 2.36385 0.328125 3.73688 0.328125 5.42428V10.5754C0.328125 12.2631 1.69677 13.6358 3.37917 13.6358H12.62C14.3024 13.6358 15.671 12.2628 15.671 10.5754V5.42428C15.671 3.73688 14.3024 2.36385 12.62 2.36385ZM15.0448 10.5757C15.0448 11.9181 13.957 13.0099 12.62 13.0099H3.37917C2.04214 13.0099 0.954365 11.9178 0.954365 10.5757V5.42428C0.954365 4.08225 2.04214 2.99009 3.37917 2.99009H12.62C13.957 2.99009 15.0448 4.08225 15.0448 5.42428V10.5757Z" fill="white"/>
<path d="M0 10.5757V5.42471C0 3.55669 1.51486 2.03528 3.3798 2.03528V2.36384C1.69741 2.36384 0.328562 3.73731 0.328562 5.42471V10.5757L0.344615 10.8883C0.490872 12.3268 1.63421 13.4731 3.06836 13.6195L3.3798 13.6355H12.6202C14.1973 13.6355 15.4987 12.4293 15.6554 10.8883L15.6714 10.5757V5.42471C15.6714 3.73731 14.3026 2.36384 12.6202 2.36384V2.03528C14.4851 2.03528 16 3.55669 16 5.42471V10.5757C15.9998 12.4436 14.485 13.9641 12.6202 13.9641H3.3798C1.515 13.9641 0.000182479 12.4439 0 10.5757ZM12.6202 12.6809V13.0095H3.3798V12.6809H12.6202ZM14.7168 10.5757V5.42471C14.7168 4.26304 13.7744 3.31849 12.6202 3.31849H3.3798C2.22557 3.31849 1.28321 4.26304 1.28321 5.42471V10.5757C1.28322 11.7374 2.22557 12.6809 3.3798 12.6809V13.0095L3.13151 12.9977C1.99191 12.8809 1.08351 11.968 0.967492 10.824L0.954649 10.5757V5.42471C0.954649 4.16674 1.91058 3.12792 3.13151 3.00277L3.3798 2.98993H12.6202C13.9572 2.98993 15.0454 4.08268 15.0454 5.42471V10.5757L15.0325 10.824C14.9082 12.0502 13.8737 13.0095 12.6202 13.0095V12.6809C13.7745 12.6809 14.7168 11.7377 14.7168 10.5757ZM12.6202 2.03528V2.36384H3.3798V2.03528H12.6202Z" fill="white"/>
<path d="M10.7734 7.88662L6.43511 5.34565C6.38751 5.31802 6.33348 5.3034 6.27844 5.30325C6.2234 5.30311 6.16929 5.31745 6.12154 5.34483C6.07379 5.3722 6.03409 5.41166 6.00641 5.45924C5.97874 5.50681 5.96406 5.56083 5.96387 5.61587V10.6975C5.96403 10.7805 5.99707 10.86 6.05576 10.9187C6.11445 10.9774 6.19399 11.0105 6.27699 11.0106C6.33257 11.0106 6.38715 10.9958 6.43511 10.9677L10.7734 8.42738C10.8206 8.39979 10.8598 8.36031 10.887 8.31288C10.9143 8.26544 10.9286 8.21169 10.9286 8.157C10.9286 8.1023 10.9143 8.04856 10.887 8.00112C10.8598 7.95368 10.8206 7.91421 10.7734 7.88662ZM6.59011 10.1511V6.16195L9.9956 8.15684L6.59011 10.1511Z" fill="white"/>
<path d="M5.63574 5.6147C5.63615 5.50199 5.66575 5.39106 5.72243 5.29363L5.76952 5.22407C5.82089 5.15759 5.8856 5.10131 5.95895 5.05925L6.03387 5.02286C6.11163 4.9909 6.1954 4.97448 6.28002 4.9747L6.3635 4.98005C6.41906 4.98751 6.47337 5.00238 6.52511 5.02393L6.60109 5.06139L6.60216 5.06246L10.9398 7.6032L11.0094 7.64922C11.0534 7.68335 11.0923 7.7237 11.126 7.76801L11.1731 7.83758L11.2095 7.9125C11.2413 7.98964 11.2576 8.07254 11.2577 8.15651C11.2577 8.26854 11.2289 8.37933 11.1731 8.47651C11.1313 8.54944 11.0754 8.61369 11.0094 8.66487L10.9398 8.71089L6.60216 11.2516C6.50395 11.3091 6.39169 11.3393 6.27788 11.3394H6.27681C6.10689 11.339 5.94427 11.2711 5.8241 11.151C5.70396 11.0309 5.63612 10.8682 5.63574 10.6983V5.6147ZM9.99588 8.15651L6.59039 10.1514V6.16159L9.99588 8.15651ZM6.91895 9.57778L9.34517 8.15651L6.91895 6.73417V9.57778ZM5.9643 10.6972C5.96447 10.7802 5.99766 10.8601 6.05634 10.9188C6.10027 10.9627 6.15583 10.9923 6.21581 11.0044L6.27788 11.0108C6.30544 11.0108 6.33285 11.0073 6.35922 11.0001L6.43521 10.968L10.7739 8.42728C10.8211 8.3997 10.8602 8.36016 10.8874 8.31276C10.9009 8.28911 10.9114 8.26397 10.9184 8.23785L10.9291 8.15651C10.929 8.10203 10.9145 8.04859 10.8874 8.00133C10.8737 7.97753 10.8573 7.95534 10.8382 7.93604L10.7739 7.88681L6.43521 5.34607C6.38765 5.31849 6.33394 5.30342 6.27895 5.30327C6.22391 5.30312 6.16938 5.31762 6.12163 5.345C6.07403 5.37238 6.03472 5.41205 6.00711 5.45952C5.97949 5.50704 5.96452 5.56081 5.9643 5.61577V10.6972Z" fill="white"/>
</svg>
